{"accessors":[{"bufferView":0,"componentType":5126,"count":120,"max":[0.0865668132901192,0.00499999988824129,0.0683012679219246],"min":[-0.0865667536854744,-0.00499999988824129,-0.0683012679219246],"normalized":false,"type":"VEC3"},{"bufferView":1,"componentType":5126,"count":120,"max":[0.866112291812897,0.0,0.866055369377136,1.0],"min":[-0.866089165210724,-0.0000208445126190782,-0.866017997264862,1.0],"normalized":false,"type":"VEC4"},{"bufferView":2,"componentType":5126,"count":120,"max":[0.866032183170319,1.0,0.866026937961578],"min":[-0.866055428981781,-1.0,-0.866017937660217],"normalized":false,"type":"VEC3"},{"bufferView":3,"componentType":5126,"count":120,"max":[1.0,1.0],"min":[0.0,0.0],"normalized":false,"type":"VEC2"},{"bufferView":4,"componentType":5123,"count":120,"max":[119.0],"min":[0.0],"normalized":false,"type":"SCALAR"}],"asset":{"generator":"Godot Engine v4.5.1.stable.arch_linux@unknown","version":"2.0"},"bufferViews":[{"buffer":0,"byteLength":1440,"byteStride":12,"target":34962},{"buffer":0,"byteLength":1920,"byteOffset":1440,"byteStride":16,"target":34962},{"buffer":0,"byteLength":1440,"byteOffset":3360,"byteStride":12,"target":34962},{"buffer":0,"byteLength":960,"byteOffset":4800,"byteStride":8,"target":34962},{"buffer":0,"byteLength":240,"byteOffset":5760,"target":34963}],"buffers":[{"byteLength":6000,"uri":"corner_tile_mesh0.bin"}],"extensionsUsed":["GODOT_single_root"],"materials":[{"extensions":{},"pbrMetallicRoughness":{"baseColorFactor":[1.0,1.0,1.0,1.0],"metallicFactor":0.0,"roughnessFactor":1.0}}],"meshes":[{"primitives":[{"attributes":{"NORMAL":2,"POSITION":0,"TANGENT":1,"TEXCOORD_0":3},"indices":4,"material":0,"mode":4}]}],"nodes":[{"children":[1],"name":"CornerTileMesh"},{"mesh":0,"name":"SideMesh","scale":[0.400000005960464,0.400000005960464,0.400000005960464],"translation":[0.0,0.0020000000949949,-0.00400000018998981]}],"scene":0,"scenes":[{"nodes":[0]}]}